<svg width="48" height="48" fill="none" xmlns="http://www.w3.org/2000/svg"><path fill-rule="evenodd" clip-rule="evenodd" d="M24 48C10.745 48 0 37.255 0 24S10.745 0 24 0s24 10.745 24 24-10.745 24-24 24Zm.791-10.648c7.869-.003 14.268-6.404 14.271-14.27a14.184 14.184 0 0 0-4.176-10.097A14.18 14.18 0 0 0 24.791 8.8c-7.866 0-14.268 6.402-14.271 14.27a14.246 14.246 0 0 0 1.905 7.135L10.4 37.6l7.565-1.985a14.26 14.26 0 0 0 6.82 1.737h.006Z" fill="#000"/><path fill-rule="evenodd" clip-rule="evenodd" d="m18.316 33.032-4.49 1.178 1.199-4.378-.282-.448a11.833 11.833 0 0 1-1.814-6.313c.003-6.54 5.324-11.86 11.867-11.86a11.78 11.78 0 0 1 8.386 3.478 11.79 11.79 0 0 1 3.47 8.392c-.002 6.54-5.323 11.861-11.86 11.861h-.006c-2.128 0-4.216-.572-6.037-1.653l-.433-.257Zm13.665-6.557c-.09-.149-.327-.238-.684-.416-.356-.179-2.11-1.041-2.436-1.16-.327-.12-.565-.179-.803.178-.237.357-.92 1.16-1.129 1.398-.208.238-.416.268-.772.09-.357-.18-1.506-.556-2.868-1.77-1.06-.946-1.776-2.114-1.984-2.47-.207-.358-.022-.55.157-.729.16-.16.357-.416.535-.624.178-.208.238-.357.356-.595.12-.238.06-.446-.03-.625-.088-.178-.802-1.933-1.099-2.647-.29-.696-.583-.602-.802-.613a14.21 14.21 0 0 0-.684-.012c-.237 0-.624.089-.95.446-.327.357-1.248 1.22-1.248 2.975 0 1.755 1.277 3.45 1.456 3.689.178.238 2.514 3.84 6.091 5.384.85.367 1.515.587 2.033.751.854.271 1.632.233 2.246.141.685-.102 2.11-.862 2.407-1.695.297-.833.297-1.547.208-1.696Z" fill="#000"/></svg>